<svg width="24" height="24" viewBox="0 0 24 24" fill="none" xmlns="http://www.w3.org/2000/svg">
<g id="account">
<path id="Icon" fill-rule="evenodd" clip-rule="evenodd" d="M12 4.5C10.346 4.5 9 5.8455 9 7.5C9 9.1545 10.346 10.5 12 10.5C13.6545 10.5 15 9.1545 15 7.5C15 5.8455 13.6545 4.5 12 4.5ZM12 12.5C9.243 12.5 7 10.257 7 7.5C7 4.743 9.243 2.5 12 2.5C14.757 2.5 17 4.743 17 7.5C17 10.257 14.757 12.5 12 12.5ZM19.5 21.5H19V19.376C19 17.2355 17.2645 15.5 15.124 15.5H8.876C6.7355 15.5 5 17.2355 5 19.376V21.5H4.5C3.6715 21.5 3 20.8285 3 20V19.376C3 16.131 5.631 13.5 8.876 13.5H15.124C18.369 13.5 21 16.131 21 19.376V20C21 20.8285 20.3285 21.5 19.5 21.5Z" fill="#E87722"/>
</g>
</svg>
