<svg width="24" height="24" viewBox="0 0 24 24" fill="none" xmlns="http://www.w3.org/2000/svg">
<g id="language">
<path id="Icon" d="M12 1C5.92 1 1 5.92 1 12C1 18.08 5.92 23 12 23C18.08 23 23 18.08 23 12C23 5.92 18.08 1 12 1ZM20.05 8H16.38C15.81 6.08 14.93 4.45 14.17 3.28C16.76 3.92 18.89 5.67 20.05 8ZM21 12C21 12.69 20.92 13.36 20.77 14H16.84C16.94 13.35 17 12.69 17 12C17 11.31 16.94 10.65 16.84 10H20.77C20.92 10.64 21 11.31 21 12ZM9.19 14C9.07 13.35 9 12.69 9 12C9 11.31 9.07 10.65 9.19 10H14.81C14.93 10.65 15 11.31 15 12C15 12.69 14.93 13.35 14.81 14H9.19ZM14.28 16C13.62 17.89 12.67 19.43 12 20.37C11.34 19.44 10.38 17.89 9.72 16H14.28ZM9.72 8C10.38 6.11 11.34 4.57 12 3.63C12.66 4.56 13.62 6.11 14.28 8H9.72ZM9.82 3.28C9.07 4.45 8.19 6.08 7.61 8H3.95C5.11 5.67 7.24 3.92 9.82 3.28ZM3.23 10H7.16C7.06 10.65 7 11.31 7 12C7 12.69 7.06 13.35 7.16 14H3.23C3.08 13.36 3 12.69 3 12C3 11.31 3.08 10.64 3.23 10ZM3.95 16H7.62C8.19 17.92 9.07 19.55 9.83 20.72C7.24 20.08 5.11 18.33 3.95 16ZM14.18 20.72C14.93 19.55 15.81 17.92 16.39 16H20.06C18.89 18.33 16.76 20.08 14.18 20.72Z" fill="#E87722"/>
</g>
</svg>
