<svg width="16" height="16" viewBox="0 0 16 16" fill="none" xmlns="http://www.w3.org/2000/svg">
<g id="tooltip">
<g id="Icon">
<path fill-rule="evenodd" clip-rule="evenodd" d="M8.3491 12.0003H7.6793C7.49443 12.0003 7.34439 11.851 7.34439 11.667V11.0003C7.34439 10.8163 7.49443 10.667 7.6793 10.667H8.3491C8.53397 10.667 8.684 10.8163 8.684 11.0003V11.667C8.684 11.851 8.53397 12.0003 8.3491 12.0003ZM8.36116 10.0004H7.66021C7.47032 10.0004 7.31861 9.83571 7.3387 9.64771C7.45692 8.55304 8.12405 8.11038 8.62339 7.77904C9.02795 7.51038 9.25937 7.35704 9.3163 6.90971C9.40739 6.19004 8.97068 5.49638 8.25533 5.35904C7.49778 5.21371 6.82194 5.70871 6.67861 6.39538C6.64579 6.55204 6.51249 6.66704 6.35174 6.66704H5.67222C5.46961 6.66704 5.30919 6.48838 5.33799 6.28871C5.54764 4.82571 6.9549 3.74171 8.53665 4.05438C9.89267 4.32271 10.7728 5.57571 10.6579 6.94704C10.5621 8.09504 9.87693 8.54971 9.36654 8.88838C8.9747 9.14838 8.74529 9.30071 8.67965 9.71638C8.6542 9.87704 8.52459 10.0004 8.36116 10.0004Z" fill="#E87722"/>
<path fill-rule="evenodd" clip-rule="evenodd" d="M8.0013 14.0003C11.315 14.0003 14.0013 11.314 14.0013 8.00033C14.0013 4.68662 11.315 2.00033 8.0013 2.00033C4.68759 2.00033 2.0013 4.68662 2.0013 8.00033C2.0013 11.314 4.68759 14.0003 8.0013 14.0003ZM8.0013 15.3337C12.0514 15.3337 15.3346 12.0504 15.3346 8.00033C15.3346 3.95024 12.0514 0.666992 8.0013 0.666992C3.95121 0.666992 0.667969 3.95024 0.667969 8.00033C0.667969 12.0504 3.95121 15.3337 8.0013 15.3337Z" fill="#E87722"/>
</g>
</g>
</svg>
